<?xml version="1.0" encoding="UTF-8"?>
<svg id="Layer_1" data-name="Layer 1" xmlns="http://www.w3.org/2000/svg" viewBox="0 0 2488.42 2818.9">
  <circle cx="1244.21" cy="1244.21" r="1166.99" fill="#fff"/>
  <g>
    <polygon points="1813.31 553.47 1815.68 571.96 1788.01 577.68 1784.28 616.98 1817.48 616.98 1861.6 612.81 1884.34 585.7 1860.13 576.2 1846.96 561.04 1826.99 528.8 1817.48 483.27 1779.98 490.78 1769.57 506.84 1769.57 525.02 1787.49 537.35 1813.31 553.47" fill="#55a4ff"/>
    <polygon points="1781.39 568.56 1783.38 543.96 1761.42 534.46 1730.72 541.58 1707.98 578.06 1707.98 601.76 1734.44 601.76 1781.39 568.56" fill="#55a4ff"/>
    <path d="M1149.45,673.3l-6.74,17.4h-32.75v16.95h7.77s.51,3.53,1.16,8.28l20.1-1.61,12.52-7.77,3.28-15.8,16.25-1.35,6.36-13.17-14.84-3.15-13.1,.19Z" fill="#55a4ff"/>
    <polygon points="1065.06 704 1063.77 720.57 1087.6 718.58 1089.98 702.01 1075.72 690.71 1065.06 704" fill="#55a4ff"/>
    <path d="M2488.15,1231.33c-.39-36.35-2.18-72.51-5.72-108.15-11.5-118.55-39.88-232.16-82.27-338.64-3.28-8.03-6.23-16.06-9.38-23.83-56.71-133.71-136.15-255.54-233.45-360.61-6.42-6.74-12.78-13.55-19.33-20.17-18.43-19.07-37.25-37.76-56.9-55.55C1860,122.92,1566.12,0,1244.24,0S623.6,125.17,401.84,329.52c-51.7,47.65-99.22,99.74-142.25,155.42C97.04,695.14,0,958.58,0,1244.11c0,686.21,558.15,1244.3,1244.24,1244.3,482.56,0,901.55-276.35,1107.83-678.89,44.18-86.06,78.42-177.96,101.6-274.04,5.91-24.34,10.92-48.94,15.35-73.79,12.46-70.71,19.39-143.15,19.39-217.58,.06-4.24-.26-8.54-.26-12.78Zm-234.15-497.34l7.13-8.03c9.44,18.3,18.37,36.99,26.84,55.94l-11.88-.51-22.16,3.15v-50.54h.06Zm-179.89-217.01l.26-55.68c19.59,20.81,38.47,42.13,56.32,64.22l-22.35,33.4-78.42-.77-4.88-16.31,49.07-24.85ZM573.25,378.91v-2.12h24.98l2.12-8.54h40.85v17.66l-11.75,15.67h-56.19v-22.67Zm39.88,55.42s24.92-4.24,27.1-4.24,0,24.98,0,24.98l-56.26,3.53-10.73-12.78,39.88-11.5Zm1720.12,493.93h-91.2l-55.42-41.42-58.31,5.78v35.64h-18.56l-19.97-14.32-101.09-25.56v-65.51l-128.06,9.89-39.75,21.45h-50.86l-25.05-2.5-61.72,34.23v64.61l-126.32,91.07,10.47,38.85h25.62l-6.68,36.99-17.98,6.68-.96,96.85,109.05,124.27h47.52l2.76-7.51h85.42l24.66-22.8h48.49l26.52,26.59,72.12,7.51-9.44,95.82,80.08,141.48-42.19,80.66,2.89,38.02,33.33,33.14v91.32l43.61,58.7v75.91h37.76c-209.68,257.34-528.68,422.07-885.69,422.07-629.7,0-1141.87-512.3-1141.87-1141.93,0-158.37,32.56-309.49,91.13-446.79v-35.64l40.85-49.52c14.19-26.84,29.41-52.92,45.6-78.42l1.8,20.68-47.4,57.67c-14.71,27.74-28.39,56.07-40.85,85.16v64.99l47.46,22.8v90.3l45.47,77.64,37.06,5.65,4.69-26.59-43.61-67.37-8.54-65.51h25.56l10.85,67.37,63.07,92.09-16.31,29.73,40.07,61.33,99.67,24.73v-16.18l39.82,5.65-3.79,28.39,31.28,5.78,48.42,13.29,68.27,77.77,87.28,6.68,8.48,71.09-59.73,41.68-2.83,63.58-8.54,38.79,86.38,108.34,6.61,36.93s31.34,8.48,35.13,8.48,70.26,50.35,70.26,50.35v195.49l23.7,6.68-16.18,90.17,39.88,53.05-7.32,89.46,52.66,92.54,67.56,59.08,68.01,1.35,6.68-21.9-49.9-42.07,2.89-20.81,8.99-25.56,1.86-26.07-33.72-1.03-17.08-21.32,28.13-27.1,3.79-20.29-31.34-9.06,1.86-18.95,44.63-6.74,67.88-32.62,22.73-41.74,71.16-91.07-16.18-71.16,21.84-38.08,65.51,1.99,44.18-34.87,14.32-137.37,48.87-62.23,8.54-39.75-44.57-14.32-29.35-48.42-100.57-.96-79.7-30.51-3.79-56.9-26.59-46.56-72.12-1.03-41.74-65.44-36.99-18.05-1.86,19.97-67.37,3.92-24.66-34.23-70.26-14.32-57.86,66.86-91.07-15.41-6.68-102.76-66.47-11.3,26.65-50.29-7.64-28.96-87.34,58.31-54.91-6.68-19.84-42.77,12.07-44.25,30.31-55.81,69.75-35.39h134.74l-.39,41.04,48.36,22.61-3.85-70.26,34.87-35.13,70.45-46.18,4.82-32.62,70.19-73.02,74.69-41.42-6.61-5.39,50.54-47.52,18.56,4.88,8.48,10.66,19.2-21.32,4.69-2.12-21.06-2.89-21.32-7.13v-20.55l11.37-9.31h24.92l11.43,5.01,9.89,19.97,12.07-1.86v-1.54l3.53,1.16,35-5.39,4.95-17.08,19.91,5.01v18.56l-18.5,12.65h.06l2.7,20.29,63.39,19.59s.13,.39,.19,.77l14.64-1.28,1.03-27.49-50.29-22.8-2.83-13.17,41.68-14.32,1.8-39.88-43.61-26.59-2.89-67.24-59.79,29.35h-21.84l5.72-51.31-81.43-19.2-33.59,25.43v77.52l-60.5,19.2-24.28,50.54-26.27,4.24v-64.74l-57.09-7.9-28.39-18.43-11.5-42,101.86-59.6,49.77-15.16,4.95,33.46,27.81-1.35,2.12-16.95,29.03-4.11,.51-5.78-12.46-5.27-2.83-17.66,35.64-3.02,21.58-22.48,1.22-1.61,.26,.13,6.61-6.74,74.95-9.5,33.2,28.19-86.96,46.3,110.65,26.07,14.32-36.99h48.42l17.08-32.24-34.1-8.54v-40.72l-107.19-47.52-73.98,8.54-41.74,21.84,2.83,53.18-43.67-6.68-7.06-29.35,41.81-38.02-75.97-3.79-21.84,6.68-9.44,25.56,28.45,4.75-5.72,28.45-48.36,2.89-7.58,18.95-70.19,1.86s-1.93-39.88-4.75-39.88,54.97-.9,54.97-.9l41.74-40.91-22.8-11.43-30.31,29.48-50.35-2.76-30.38-41.87h-64.54l-67.37,50.29h61.72l5.65,18.05-16.12,15.16,68.33,1.86,10.4,24.73-76.87-2.89-3.79-18.95-48.36-10.4-25.62-14.32-57.54,.51c188.56-137.37,420.33-218.61,670.86-218.61,288.68,0,552.57,107.89,753.84,285.21l-13.62,24.21-52.53,20.68-22.22,24.08,5.01,28.13,27.23,3.79,16.44,41.04,46.82-18.95,7.77,54.85h-14.19l-38.53-5.78-42.64,7.13-41.29,58.44-59.08,9.18-8.61,50.54,25.05,5.91-7.13,32.5-58.7-11.82-53.82,11.82-11.43,29.99,9.38,62.87,31.6,14.71,52.85-.26,35.77-3.28,10.98-28.45,55.87-72.64,36.74,7.51,36.22-32.75,6.68,25.56,89.14,60.24-10.85,14.58-40.2-2.12,15.41,21.96,24.79,5.39,28.96-12.07-.58-34.87,12.91-6.55-10.15-10.85-59.47-33.27-15.67-44.06h49.52l15.73,15.67,42.64,36.61,1.73,44.38,44.18,47.01,16.44-64.35,30.63-16.7,5.78,52.53,29.86,32.75,59.53-1.03c11.5,29.73,21.9,59.85,30.76,90.55l-6.42,6.04ZM678.7,565.28l29.86-14.32,27.04,6.55-9.31,36.22-29.16,9.31-18.43-37.76Zm158.56,85.42v23.44h-68.27l-25.56-7.13,6.36-16.31,32.82-13.55h44.83v13.55h9.83Zm31.4,32.75v22.8l-17.15,10.92-21.26,4.05v-37.76s38.4,0,38.4,0Zm-19.27-9.31v-27.1l23.51,21.45-23.51,5.65Zm10.73,54.72v22.22l-16.38,16.31h-36.29l5.72-24.85,17.15-1.48,3.53-8.54,26.27-3.66Zm-90.42-45.4h37.7l-48.36,67.63-20.04-10.66,4.3-28.45,26.4-28.51Zm154.45,37.76v22.09h-36.35l-9.89-14.45v-20.42h2.83l43.41,12.78Zm-33.46-30.51l10.28-10.79,17.47,10.79-14,11.56-13.74-11.56Zm1461.05,295.16l3.66-4.11c1.41,6.42,3.02,12.91,4.43,19.46l-8.09-15.35Z" fill="#55a4ff"/>
    <path d="M193.5,761.74v35.64c12.39-29.09,26.14-57.48,40.85-85.16l-40.85,49.52Z" fill="#55a4ff"/>
  </g>
</svg>