<?xml version="1.0" encoding="utf-8"?>
<!-- Generator: Adobe Illustrator 26.4.1, SVG Export Plug-In . SVG Version: 6.00 Build 0)  -->
<svg version="1.1" id="Layer_1" xmlns="http://www.w3.org/2000/svg" xmlns:xlink="http://www.w3.org/1999/xlink" x="0px" y="0px"
	 viewBox="0 0 2488.4 2818.9" style="enable-background:new 0 0 2488.4 2818.9;" xml:space="preserve">
<style type="text/css">
	.st0{fill:#FFFFFF;}
	.st1{fill:#07FDDA;}
	.st2{fill:#5A9FA1;}
</style>
<circle class="st0" cx="1244.2" cy="1244.2" r="1167"/>
<g>
	<g>
		<polygon class="st1" points="1813.3,553.5 1815.7,572 1788,577.7 1784.3,617 1817.5,617 1861.6,612.8 1884.3,585.7 1860.1,576.2 
			1847,561 1827,528.8 1817.5,483.3 1780,490.8 1769.6,506.8 1769.6,525 1787.5,537.3 		"/>
		<polygon class="st1" points="1781.4,568.6 1783.4,544 1761.4,534.5 1730.7,541.6 1708,578.1 1708,601.8 1734.4,601.8 		"/>
		<path class="st1" d="M1149.4,673.3l-6.7,17.4H1110v17h7.8c0,0,0.5,3.5,1.2,8.3l20.1-1.6l12.5-7.8l3.3-15.8l16.2-1.3l6.4-13.2
			l-14.8-3.2L1149.4,673.3L1149.4,673.3z"/>
		<polygon class="st1" points="1065.1,704 1063.8,720.6 1087.6,718.6 1090,702 1075.7,690.7 		"/>
		<path class="st1" d="M2488.1,1231.3c-0.4-36.3-2.2-72.5-5.7-108.2c-11.5-118.5-39.9-232.2-82.3-338.6c-3.3-8-6.2-16.1-9.4-23.8
			c-56.7-133.7-136.1-255.5-233.4-360.6c-6.4-6.7-12.8-13.5-19.3-20.2c-18.4-19.1-37.2-37.8-56.9-55.5C1860,122.9,1566.1,0,1244.2,0
			S623.6,125.2,401.8,329.5c-51.7,47.6-99.2,99.7-142.2,155.4C97,695.1,0,958.6,0,1244.1c0,686.2,558.2,1244.3,1244.2,1244.3
			c482.6,0,901.6-276.4,1107.8-678.9c44.2-86.1,78.4-178,101.6-274c5.9-24.3,10.9-48.9,15.4-73.8c12.5-70.7,19.4-143.2,19.4-217.6
			C2488.5,1239.9,2488.1,1235.6,2488.1,1231.3L2488.1,1231.3z M2254,734l7.1-8c9.4,18.3,18.4,37,26.8,55.9l-11.9-0.5l-22.2,3.2
			L2254,734L2254,734L2254,734z M2074.1,517l0.3-55.7c19.6,20.8,38.5,42.1,56.3,64.2l-22.4,33.4l-78.4-0.8l-4.9-16.3L2074.1,517
			L2074.1,517z M573.2,378.9v-2.1h25l2.1-8.5h40.8v17.7l-11.8,15.7h-56.2L573.2,378.9L573.2,378.9z M613.1,434.3
			c0,0,24.9-4.2,27.1-4.2s0,25,0,25l-56.3,3.5l-10.7-12.8L613.1,434.3L613.1,434.3z M2333.2,928.3h-91.2l-55.4-41.4l-58.3,5.8v35.6
			h-18.6l-20-14.3l-101.1-25.6v-65.5l-128.1,9.9l-39.8,21.5H1770l-25.1-2.5l-61.7,34.2v64.6l-126.3,91.1l10.5,38.8h25.6l-6.7,37
			l-18,6.7l-1,96.8l109.1,124.3h47.5l2.8-7.5h85.4l24.7-22.8h48.5l26.5,26.6l72.1,7.5l-9.4,95.8l80.1,141.5l-42.2,80.7l2.9,38
			l33.3,33.1v91.3l43.6,58.7v75.9h37.8c-209.7,257.3-528.7,422.1-885.7,422.1c-629.7,0-1141.9-512.3-1141.9-1141.9
			c0-158.4,32.6-309.5,91.1-446.8v-35.6l40.9-49.5c14.2-26.8,29.4-52.9,45.6-78.4l1.8,20.7l-47.4,57.7
			c-14.7,27.7-28.4,56.1-40.9,85.2v65l47.5,22.8v90.3l45.5,77.6l37.1,5.7l4.7-26.6l-43.6-67.4l-8.5-65.5h25.6l10.9,67.4l63.1,92.1
			l-16.3,29.7l40.1,61.3l99.7,24.7v-16.2l39.8,5.7l-3.8,28.4l31.3,5.8l48.4,13.3l68.3,77.8l87.3,6.7l8.5,71.1l-59.7,41.7l-2.8,63.6
			l-8.5,38.8l86.4,108.3l6.6,36.9c0,0,31.3,8.5,35.1,8.5s70.3,50.3,70.3,50.3v195.5l23.7,6.7l-16.2,90.2l39.9,53l-7.3,89.5
			l52.7,92.5l67.6,59.1l68,1.4l6.7-21.9l-49.9-42.1l2.9-20.8l9-25.6l1.9-26.1l-33.7-1l-17.1-21.3l28.1-27.1l3.8-20.3l-31.3-9.1
			l1.9-18.9l44.6-6.7l67.9-32.6l22.7-41.7l71.2-91.1l-16.2-71.2l21.8-38.1l65.5,2l44.2-34.9l14.3-137.4l48.9-62.2l8.5-39.8
			l-44.6-14.3l-29.3-48.4l-100.6-1l-79.7-30.5l-3.8-56.9l-26.6-46.6l-72.1-1l-41.7-65.4l-37-18.1l-1.9,20l-67.4,3.9l-24.7-34.2
			l-70.3-14.3l-57.9,66.9l-91.1-15.4l-6.7-102.8l-66.5-11.3l26.7-50.3l-7.6-29l-87.3,58.3l-54.9-6.7l-19.8-42.8l12.1-44.2l30.3-55.8
			l69.8-35.4h134.7l-0.4,41l48.4,22.6l-3.8-70.3l34.9-35.1l70.5-46.2l4.8-32.6l70.2-73l74.7-41.4l-6.6-5.4l50.5-47.5l18.6,4.9
			l8.5,10.7l19.2-21.3l4.7-2.1l-21.1-2.9l-21.3-7.1v-20.5l11.4-9.3h24.9l11.4,5l9.9,20l12.1-1.9v-1.5l3.5,1.2l35-5.4l4.9-17.1
			l19.9,5V628l-18.5,12.7h0.1l2.7,20.3l63.4,19.6c0,0,0.1,0.4,0.2,0.8l14.6-1.3l1-27.5l-50.3-22.8l-2.8-13.2l41.7-14.3l1.8-39.9
			l-43.6-26.6l-2.9-67.2l-59.8,29.4h-21.8l5.7-51.3l-81.4-19.2l-33.6,25.4v77.5l-60.5,19.2l-24.3,50.5l-26.3,4.2v-64.7l-57.1-7.9
			l-28.4-18.4l-11.5-42l101.9-59.6l49.8-15.2l5,33.5l27.8-1.4l2.1-17l29-4.1l0.5-5.8l-12.5-5.3l-2.8-17.7l35.6-3l21.6-22.5l1.2-1.6
			l0.3,0.1l6.6-6.7l74.9-9.5l33.2,28.2l-87,46.3l110.7,26.1l14.3-37h48.4L1303,367l-34.1-8.5v-40.7l-107.2-47.5l-74,8.5l-41.7,21.8
			l2.8,53.2l-43.7-6.7l-7.1-29.4l41.8-38l-76-3.8l-21.8,6.7l-9.4,25.6l28.5,4.8l-5.7,28.5l-48.4,2.9l-7.6,19l-70.2,1.9
			c0,0-1.9-39.9-4.8-39.9s55-0.9,55-0.9l41.7-40.9l-22.8-11.4l-30.3,29.5l-50.3-2.8l-30.4-41.9h-64.5l-67.4,50.3h61.7l5.7,18
			l-16.1,15.2l68.3,1.9l10.4,24.7l-76.9-2.9l-3.8-19l-48.4-10.4l-25.6-14.3l-57.5,0.5c188.6-137.4,420.3-218.6,670.9-218.6
			c288.7,0,552.6,107.9,753.8,285.2l-13.6,24.2l-52.5,20.7l-22.2,24.1l5,28.1l27.2,3.8l16.4,41l46.8-19l7.8,54.8h-14.2l-38.5-5.8
			l-42.6,7.1l-41.3,58.4l-59.1,9.2l-8.6,50.5l25.1,5.9l-7.1,32.5l-58.7-11.8l-53.8,11.8l-11.4,30l9.4,62.9l31.6,14.7l52.8-0.3
			l35.8-3.3l11-28.5l55.9-72.6l36.7,7.5l36.2-32.8l6.7,25.6l89.1,60.2l-10.9,14.6l-40.2-2.1l15.4,22l24.8,5.4l29-12.1l-0.6-34.9
			l12.9-6.5l-10.1-10.8l-59.5-33.3l-15.7-44.1h49.5l15.7,15.7l42.6,36.6l1.7,44.4l44.2,47l16.4-64.3l30.6-16.7l5.8,52.5l29.9,32.8
			l59.5-1c11.5,29.7,21.9,59.8,30.8,90.5L2333.2,928.3L2333.2,928.3z M678.7,565.3l29.9-14.3l27,6.5l-9.3,36.2l-29.2,9.3
			L678.7,565.3L678.7,565.3z M837.3,650.7v23.4H769l-25.6-7.1l6.4-16.3l32.8-13.5h44.8v13.5H837.3L837.3,650.7z M868.7,683.5v22.8
			l-17.2,10.9l-21.3,4v-37.8L868.7,683.5L868.7,683.5z M849.4,674.1V647l23.5,21.5L849.4,674.1L849.4,674.1z M860.1,728.9v22.2
			l-16.4,16.3h-36.3l5.7-24.8l17.2-1.5l3.5-8.5L860.1,728.9L860.1,728.9z M769.7,683.5h37.7L759,751.1l-20-10.7l4.3-28.5
			L769.7,683.5L769.7,683.5z M924.2,721.2v22.1h-36.3l-9.9-14.5v-20.4h2.8L924.2,721.2L924.2,721.2z M890.7,690.7l10.3-10.8
			l17.5,10.8l-14,11.6L890.7,690.7L890.7,690.7z M2351.7,985.9l3.7-4.1c1.4,6.4,3,12.9,4.4,19.5L2351.7,985.9L2351.7,985.9z"/>
		<path class="st1" d="M193.5,761.7v35.6c12.4-29.1,26.1-57.5,40.9-85.2L193.5,761.7z"/>
	</g>
</g>
<circle class="st0" cx="1244.2" cy="1244.2" r="1134"/>
<g>
	<g>
		<path d="M264.7,789.5h173.1V1677H264.7V789.5z M369,1330.3l368.4-540.8h218l-564.2,758.1L369,1330.3z M521.9,1227.8l149.1-90.9
			L993.9,1677H788.5L521.9,1227.8z"/>
		<path d="M2020.3,789.5h228.1V1677H2091V987.9l6.3,39.1l-175.7,551.2h-152.9l-175.6-538.9l6.3-51.3V1677h-157.3V789.5h228.1
			l175,598.1L2020.3,789.5z"/>
	</g>
</g>
<g>
	<g>
		<path class="st2" d="M1020.9,1305.8c0-117.4,180.5-119.8,180.5-199.9c0-13.6-6.7-23.7-21.3-23.7c-24.1,0-44.2,23.4-44.2,58.4
			c0,57.1,44.4,124.4,92.6,165.5c21.8,18.5,45.4,30.5,63.6,36.1l-21.4,42.6c-26.3-6.8-54.2-22.8-79.7-46.2
			c-55.3-50.3-100.3-131.4-100.3-196c0-54.8,41.8-96.8,92.8-96.8c39.6,0,60.4,24.6,60.4,59.6c0,98.4-170.8,116-170.8,194.4
			c0,26,17.8,43.8,45.2,43.8c25.6,0,53.2-13,77.4-35.6c32.6-30.7,55.4-66.5,73.8-109h48.8c-23,49-51.6,95.4-90.7,133.6
			c-33.2,32.3-72.9,52.2-119.1,52.2C1054.5,1384.8,1020.9,1353.2,1020.9,1305.8z"/>
	</g>
</g>
</svg>
